<svg width="47" height="47" viewBox="0 0 47 47" fill="none" xmlns="http://www.w3.org/2000/svg">
<path d="M47 2.00867C47.0048 1.18026 46.3371 0.504814 45.5087 0.500025L32.0089 0.421992C31.1805 0.417203 30.505 1.08488 30.5003 1.9133C30.4955 2.74171 31.1631 3.41715 31.9916 3.42194L43.9914 3.4913L43.922 15.4911C43.9172 16.3195 44.5849 16.995 45.4133 16.9997C46.2417 17.0045 46.9172 16.3369 46.9219 15.5084L47 2.00867ZM0.500025 44.9913C0.495237 45.8197 1.16292 46.4952 1.99133 46.5L15.4911 46.578C16.3195 46.5828 16.995 45.9151 16.9997 45.0867C17.0045 44.2583 16.3369 43.5828 15.5084 43.5781L3.50865 43.5087L3.57801 31.5089C3.5828 30.6805 2.91512 30.005 2.0867 30.0003C1.25829 29.9955 0.582847 30.6631 0.578058 31.4916L0.500025 44.9913ZM1.99133 0.500025C1.16292 0.504814 0.495237 1.18026 0.500025 2.00867L0.578058 15.5084C0.582847 16.3369 1.25829 17.0045 2.0867 16.9997C2.91512 16.995 3.5828 16.3195 3.57801 15.4911L3.50865 3.4913L15.5084 3.42194C16.3369 3.41715 17.0045 2.74171 16.9997 1.9133C16.995 1.08488 16.3195 0.417203 15.4911 0.421992L1.99133 0.500025ZM45.5087 46.5C46.3371 46.4952 47.0048 45.8197 47 44.9913L46.9219 31.4916C46.9172 30.6631 46.2417 29.9955 45.4133 30.0003C44.5849 30.005 43.9172 30.6805 43.922 31.5089L43.9914 43.5087L31.9916 43.5781C31.1631 43.5828 30.4955 44.2583 30.5003 45.0867C30.505 45.9151 31.1805 46.5828 32.0089 46.578L45.5087 46.5ZM44.4455 0.933227L0.945488 43.9332L3.05451 46.0668L46.5545 3.06677L44.4455 0.933227ZM0.945488 3.06677L44.4455 46.0668L46.5545 43.9332L3.05451 0.933227L0.945488 3.06677Z" fill="white"/>
</svg>
