<svg width="433" height="375" viewBox="0 0 433 375" fill="none" xmlns="http://www.w3.org/2000/svg">
<path d="M216.5 32C130.757 32 61 87.809 61 156.4C61 201.619 90.5139 242.158 138.75 264.224V343L221.787 280.722C305.088 278.499 372 223.576 372 156.4C372 87.809 302.243 32 216.5 32ZM216.5 249.7H211.322L169.85 280.8V243.216L159.882 239.375C118.069 223.281 92.1 191.481 92.1 156.4C92.1 104.945 147.909 63.1 216.5 63.1C285.091 63.1 340.9 104.945 340.9 156.4C340.9 207.855 285.091 249.7 216.5 249.7Z" fill="#393E46"/>
<path d="M252.156 98.7559L216.5 134.412L180.843 98.7559L158.856 120.744L194.512 156.4L158.856 192.056L180.843 214.044L216.5 178.387L252.156 214.044L274.143 192.056L238.487 156.4L274.143 120.744L252.156 98.7559Z" fill="#393E46"/>
</svg>
