<svg width="114" height="64" viewBox="0 0 114 64" fill="none" xmlns="http://www.w3.org/2000/svg">
<path d="M9.18052 25C7.34442 25 5.57893 24.7074 3.88407 24.1222C2.21274 23.537 0.918052 22.7645 0 21.8048L1.02398 19.8034C1.91849 20.6929 3.10725 21.4185 4.59026 21.9803C6.07327 22.5187 7.60335 22.7879 9.18052 22.7879C11.3933 22.7879 13.0528 22.39 14.1592 21.5941C15.2656 20.7748 15.8187 19.7214 15.8187 18.434C15.8187 17.4508 15.5127 16.6667 14.9007 16.0815C14.3122 15.4963 13.5825 15.0515 12.7115 14.7472C11.8405 14.4195 10.6282 14.0684 9.07459 13.6938C7.21495 13.2257 5.73194 12.7809 4.62557 12.3596C3.5192 11.9148 2.56584 11.2477 1.76548 10.3581C0.988672 9.46863 0.600265 8.26311 0.600265 6.74157C0.600265 5.50094 0.929822 4.37734 1.58894 3.37079C2.24805 2.34082 3.26026 1.52154 4.62557 0.912921C5.99088 0.304307 7.68574 0 9.71017 0C11.1226 0 12.4996 0.19897 13.8414 0.59691C15.2067 0.971442 16.3837 1.49813 17.3724 2.17697L16.4896 4.2486C15.4539 3.56976 14.3475 3.06648 13.1705 2.73876C11.9935 2.38764 10.8401 2.21208 9.71017 2.21208C7.54451 2.21208 5.90849 2.63343 4.80212 3.47612C3.71929 4.29541 3.17787 5.36049 3.17787 6.67135C3.17787 7.65449 3.47212 8.45037 4.06061 9.05899C4.67265 9.6442 5.42592 10.1007 6.32043 10.4284C7.23849 10.7327 8.46256 11.0721 9.99264 11.4466C11.8052 11.8914 13.2647 12.3361 14.371 12.7809C15.501 13.2022 16.4543 13.8577 17.2311 14.7472C18.0079 15.6133 18.3964 16.7954 18.3964 18.2935C18.3964 19.5342 18.055 20.6695 17.3724 21.6994C16.7133 22.706 15.6893 23.5136 14.3004 24.1222C12.9116 24.7074 11.2049 25 9.18052 25ZM28.5467 2.45787H19.8606V0.210674H39.8458V2.45787H31.1596V24.7893H28.5467V2.45787ZM58.2798 18.2233H44.509L41.543 24.7893H38.8242L50.1233 0.210674H52.7009L64 24.7893H61.2458L58.2798 18.2233ZM57.3265 16.1166L51.3944 2.91433L45.4624 16.1166H57.3265Z" fill="#EEEEEE"/>
<path d="M78.807 25C76.3809 25 74.1881 24.4616 72.2285 23.3848C70.2923 22.3081 68.7643 20.8216 67.6446 18.9256C66.5482 17.0061 66 14.8642 66 12.5C66 10.1358 66.5482 8.00562 67.6446 6.10955C68.7643 4.19008 70.304 2.69195 72.2635 1.61517C74.2231 0.538389 76.4159 0 78.842 0C80.6616 0 82.3412 0.304307 83.8808 0.912921C85.4204 1.52154 86.7268 2.41105 87.7999 3.58146L86.1553 5.23174C84.2424 3.28886 81.828 2.31742 78.912 2.31742C76.9758 2.31742 75.2145 2.76217 73.6282 3.65169C72.0419 4.5412 70.7939 5.75843 69.8841 7.30337C68.9976 8.84832 68.5544 10.5805 68.5544 12.5C68.5544 14.4195 68.9976 16.1517 69.8841 17.6966C70.7939 19.2416 72.0419 20.4588 73.6282 21.3483C75.2145 22.2378 76.9758 22.6826 78.912 22.6826C81.8513 22.6826 84.2657 21.6994 86.1553 19.7331L87.7999 21.3834C86.7268 22.5538 85.4088 23.4551 83.8458 24.0871C82.3062 24.6957 80.6266 25 78.807 25ZM100.913 13.2374L95.9092 18.3287V24.7893H93.3198V0.210674H95.9092V15.0632L110.291 0.210674H113.265L102.663 11.3413L114 24.7893H110.921L100.913 13.2374Z" fill="#00ADB5"/>
<path d="M50.1174 58C48.2939 58 46.5406 57.6957 44.8574 57.0871C43.1975 56.4785 41.9117 55.6751 41 54.677L42.0169 52.5955C42.9053 53.5206 44.0859 54.2753 45.5587 54.8596C47.0315 55.4195 48.5511 55.6994 50.1174 55.6994C52.315 55.6994 53.9631 55.2856 55.0619 54.4579C56.1607 53.6058 56.71 52.5103 56.71 51.1713C56.71 50.1489 56.4061 49.3333 55.7983 48.7247C55.2139 48.1161 54.4891 47.6536 53.6241 47.3371C52.7592 46.9963 51.5552 46.6311 50.0122 46.2416C48.1654 45.7547 46.6926 45.2921 45.5938 44.8539C44.495 44.3914 43.5482 43.6976 42.7534 42.7725C41.9819 41.8474 41.5961 40.5936 41.5961 39.0112C41.5961 37.721 41.9234 36.5524 42.578 35.5056C43.2326 34.4345 44.2379 33.5824 45.5938 32.9494C46.9497 32.3165 48.6329 32 50.6434 32C52.0461 32 53.4137 32.2069 54.7463 32.6208C56.1022 33.0103 57.2711 33.5581 58.253 34.264L57.3763 36.4185C56.3477 35.7125 55.2489 35.1891 54.08 34.8483C52.9111 34.4831 51.7656 34.3006 50.6434 34.3006C48.4927 34.3006 46.8679 34.7388 45.7691 35.6152C44.6937 36.4672 44.156 37.5749 44.156 38.9382C44.156 39.9607 44.4483 40.7884 45.0327 41.4213C45.6405 42.03 46.3886 42.5047 47.277 42.8455C48.1887 43.162 49.4044 43.515 50.924 43.9045C52.7241 44.367 54.1735 44.8296 55.2723 45.2921C56.3944 45.7303 57.3413 46.412 58.1127 47.3371C58.8842 48.2378 59.2699 49.4672 59.2699 51.0253C59.2699 52.3155 58.931 53.4963 58.253 54.5674C57.5984 55.6142 56.5815 56.4541 55.2022 57.0871C53.8229 57.6957 52.1279 58 50.1174 58ZM64.9239 32.2191H67.5189V57.7809H64.9239V32.2191ZM80.2748 34.5562H71.6483V32.2191H91.4963V34.5562H82.8698V57.7809H80.2748V34.5562ZM113 55.4438V57.7809H95.6418V32.2191H112.474V34.5562H98.2368V43.6489H110.931V45.9494H98.2368V55.4438H113Z" fill="#EEEEEE"/>
<path d="M10.4788 41.6954H12.6036V58H10.4788V41.6954ZM11.5562 38.1307C11.1172 38.1307 10.7482 37.9757 10.4489 37.6658C10.1496 37.3558 10 36.9838 10 36.5499C10 36.1367 10.1496 35.7749 10.4489 35.465C10.7482 35.155 11.1172 35 11.5562 35C11.9951 35 12.3642 35.155 12.6635 35.465C12.9627 35.7542 13.1124 36.1057 13.1124 36.5189C13.1124 36.9736 12.9627 37.3558 12.6635 37.6658C12.3642 37.9757 11.9951 38.1307 11.5562 38.1307ZM26.536 41.5714C28.511 41.5714 30.0774 42.1706 31.2343 43.3693C32.4116 44.5472 33 46.2728 33 48.5458V58H30.8752V48.7628C30.8752 47.0682 30.4664 45.7768 29.6482 44.8881C28.8303 43.9994 27.6632 43.5553 26.147 43.5553C24.4511 43.5553 23.1044 44.0822 22.1069 45.1361C21.1293 46.1693 20.6405 47.6057 20.6405 49.4447V58H18.5157V41.6954H20.5507V44.7022C21.1293 43.7102 21.9274 42.9455 22.9449 42.4084C23.9823 41.8504 25.1793 41.5714 26.536 41.5714Z" fill="#EEEEEE"/>
<path d="M36 45.5C36 35.835 28.165 28 18.5 28C8.83501 28 1 35.835 1 45.5C1 55.165 8.83501 63 18.5 63" stroke="#00ADB5" stroke-width="2"/>
<path d="M8 59C48.8097 62.4112 71.8213 63.5485 113 59" stroke="#00ADB5" stroke-width="2" stroke-linecap="round" stroke-linejoin="round"/>
</svg>
