<svg width="120" height="68" viewBox="0 0 120 68" fill="none" xmlns="http://www.w3.org/2000/svg">
<path d="M1.22166 21.9218C2.14526 22.7161 3.28798 23.3694 4.63819 23.8887L4.63817 23.8888L4.64476 23.8912C6.25649 24.4853 7.92092 24.7826 9.63536 24.7826C12.0038 24.7826 13.8705 24.3528 15.1556 23.4143L15.1556 23.4143L15.1612 23.4101C16.4393 22.4491 17.1025 21.1827 17.1025 19.6431C17.1025 18.487 16.7442 17.5144 15.9907 16.7809C15.3168 16.1016 14.4875 15.5914 13.5141 15.2453C12.5726 14.886 11.2799 14.507 9.6456 14.107C7.70649 13.6113 6.17357 13.1438 5.03945 12.7056C3.95294 12.2614 3.01776 11.5972 2.22964 10.7087C1.51466 9.87593 1.13 8.71998 1.13 7.18376C1.13 5.95424 1.45011 4.85168 2.08785 3.86288L2.08787 3.8629L2.09065 3.85849C2.72002 2.85997 3.69802 2.04514 5.0609 1.42832C6.41057 0.817477 8.11404 0.5 10.1912 0.5C11.6252 0.5 13.0219 0.70498 14.383 1.11483L14.383 1.11493L14.393 1.11773C15.627 1.46142 16.6982 1.92603 17.6122 2.50699L17.0744 3.78849C16.0941 3.19834 15.0569 2.74803 13.9635 2.43852C12.6869 2.05228 11.4289 1.85717 10.1912 1.85717C7.86516 1.85717 6.02 2.31455 4.7348 3.3081C3.47929 4.27284 2.83532 5.55234 2.83532 7.10893C2.83532 8.26161 3.17865 9.24087 3.89973 9.998L3.90649 10.0051L3.91352 10.0119C4.61122 10.6893 5.4632 11.2105 6.45926 11.581L6.46664 11.5838L6.4741 11.5863C7.45577 11.9166 8.755 12.282 10.3669 12.6826C12.2574 13.1536 13.7637 13.6208 14.8941 14.0821L14.894 14.0823L14.906 14.0868C16.015 14.5067 16.9457 15.1569 17.7058 16.0405L17.7057 16.0406L17.7101 16.0455C18.4231 16.8527 18.8078 17.982 18.8078 19.4934C18.8078 20.7193 18.4773 21.8339 17.8144 22.8494L17.8129 22.8517C17.1861 23.8235 16.1983 24.6274 14.809 25.2461C13.4313 25.8348 11.7125 26.1398 9.63536 26.1398C7.76373 26.1398 5.96715 25.8372 4.24299 25.2329C2.69028 24.6808 1.4867 23.978 0.608557 23.1384L1.22166 21.9218ZM30.461 2.61908V2.11908H29.961H21.3446V0.724492H41.3199V2.11908H32.7034H32.2034V2.61908V25.9153H30.461V2.61908ZM61.6241 19.2153L61.4921 18.9186H61.1673H46.7142H46.3894L46.2574 19.2153L43.2765 25.9153H41.523L52.9291 0.724492H54.9894L66.3956 25.9153H64.605L61.6241 19.2153ZM60.1667 17.6737H60.9347L60.6239 16.9713L54.398 2.90313L53.9407 1.86998L53.4835 2.90313L47.2576 16.9713L46.9468 17.6737H47.7148H60.1667Z" fill="#222831" stroke="#222831"/>
<path d="M82.7279 26.6398C80.1584 26.6398 77.8361 26.0661 75.7607 24.9187C73.7101 23.7713 72.0919 22.1873 70.906 20.1669C69.7448 18.1215 69.1642 15.8392 69.1642 13.3199C69.1642 10.8006 69.7448 8.53072 70.906 6.51028C72.0919 4.46491 73.7225 2.86851 75.7978 1.72111C77.8731 0.573702 80.1955 0 82.7649 0C84.692 0 86.4708 0.324266 88.1014 0.9728C89.732 1.62133 91.1156 2.56919 92.252 3.81637L90.5103 5.5749C88.4844 3.50458 85.9273 2.46942 82.839 2.46942C80.7884 2.46942 78.9231 2.94335 77.2431 3.8912C75.5631 4.83906 74.2413 6.13613 73.2778 7.78241C72.339 9.42869 71.8695 11.2745 71.8695 13.3199C71.8695 15.3653 72.339 17.2111 73.2778 18.8574C74.2413 20.5036 75.5631 21.8007 77.2431 22.7486C78.9231 23.6964 80.7884 24.1704 82.839 24.1704C85.952 24.1704 88.5091 23.1227 90.5103 21.0275L92.252 22.786C91.1156 24.0332 89.7197 24.9935 88.0644 25.667C86.4338 26.3155 84.6549 26.6398 82.7279 26.6398ZM106.14 14.1056L100.84 19.5308V26.4153H98.0981V0.224492H100.84V16.0512L116.072 0.224492H119.222L107.993 12.0852L120 26.4153H116.739L106.14 14.1056Z" fill="#00ADB5"/>
<path d="M52.871 60.9371C50.9439 60.9371 49.0909 60.6253 47.3121 60.0018C45.558 59.3782 44.1991 58.555 43.2356 57.5323L44.3103 55.3997C45.2492 56.3475 46.4968 57.1208 48.0533 57.7194C49.6098 58.2931 51.2157 58.58 52.871 58.58C55.1933 58.58 56.9351 58.1559 58.0963 57.3079C59.2575 56.4348 59.8381 55.3124 59.8381 53.9405C59.8381 52.8928 59.5169 52.0572 58.8745 51.4336C58.2569 50.81 57.491 50.3361 56.5769 50.0118C55.6628 49.6626 54.3904 49.2885 52.7598 48.8894C50.808 48.3905 49.2515 47.9166 48.0904 47.4676C46.9292 46.9937 45.9286 46.2828 45.0886 45.3349C44.2733 44.3871 43.8656 43.1025 43.8656 41.4811C43.8656 40.1591 44.2115 38.9618 44.9033 37.8892C45.595 36.7917 46.6574 35.9187 48.0904 35.2702C49.5233 34.6216 51.3021 34.2974 53.4269 34.2974C54.9092 34.2974 56.3545 34.5094 57.7628 34.9334C59.1957 35.3325 60.431 35.8938 61.4687 36.6171L60.5422 38.8246C59.4551 38.1013 58.294 37.565 57.0587 37.2158C55.8234 36.8416 54.6128 36.6545 53.4269 36.6545C51.1539 36.6545 49.4368 37.1035 48.2756 38.0015C47.1392 38.8745 46.5709 40.0095 46.5709 41.4063C46.5709 42.4539 46.8798 43.302 47.4974 43.9505C48.1398 44.5741 48.9304 45.0605 49.8692 45.4097C50.8327 45.734 52.1174 46.0957 53.7233 46.4948C55.6257 46.9687 57.1575 47.4426 58.3187 47.9166C59.5045 48.3656 60.5051 49.064 61.3204 50.0118C62.1357 50.9348 62.5434 52.1944 62.5434 53.7908C62.5434 55.1128 62.1852 56.3226 61.4687 57.4201C60.7769 58.4927 59.7022 59.3532 58.2445 60.0018C56.7869 60.6253 54.9957 60.9371 52.871 60.9371ZM68.5186 34.5219H71.2609V60.7127H68.5186V34.5219ZM84.7415 36.9164H75.6249V34.5219H96.6004V36.9164H87.4838V60.7127H84.7415V36.9164ZM119.326 58.3181V60.7127H100.981V34.5219H118.77V36.9164H103.724V46.2329H117.139V48.5901H103.724V58.3181H119.326Z" fill="#222831"/>
<path d="M10.5804 44.3119H12.7731V60.7124H10.5804V44.3119ZM11.6922 40.7263C11.2392 40.7263 10.8583 40.5704 10.5495 40.2586C10.2407 39.9468 10.0863 39.5726 10.0863 39.1361C10.0863 38.7205 10.2407 38.3566 10.5495 38.0448C10.8583 37.733 11.2392 37.5771 11.6922 37.5771C12.1451 37.5771 12.526 37.733 12.8348 38.0448C13.1436 38.3357 13.2981 38.6893 13.2981 39.1049C13.2981 39.5623 13.1436 39.9468 12.8348 40.2586C12.526 40.5704 12.1451 40.7263 11.6922 40.7263ZM27.1506 44.1872C29.1887 44.1872 30.8051 44.7899 31.999 45.9956C33.2139 47.1804 33.8211 48.9162 33.8211 51.2026V60.7124H31.6284V51.4209C31.6284 49.7163 31.2066 48.4173 30.3622 47.5234C29.5182 46.6295 28.3138 46.1827 26.7491 46.1827C24.9991 46.1827 23.6094 46.7127 22.58 47.7729C21.5711 48.8121 21.0667 50.2569 21.0667 52.1068V60.7124H18.8741V44.3119H20.9741V47.3363C21.5711 46.3386 22.3947 45.5694 23.4447 45.0291C24.5153 44.4678 25.7506 44.1872 27.1506 44.1872Z" fill="#222831"/>
<path d="M38.4055 48.2409C38.4055 37.909 30.1095 29.5332 19.8759 29.5332C9.64233 29.5332 1.34637 37.909 1.34637 48.2409C1.34637 58.5729 9.64233 66.9486 19.8759 66.9486" stroke="#00ADB5" stroke-width="0.5"/>
<path d="M7.52292 62.272C50.7335 65.8174 75.0989 66.9994 118.7 62.272" stroke="#00ADB5" stroke-width="0.5" stroke-linecap="round" stroke-linejoin="round"/>
</svg>
