<svg width="30" height="30" viewBox="0 0 30 30" fill="none" xmlns="http://www.w3.org/2000/svg">
<path d="M29.5506 13.9803L14.1517 0.164326C14.0335 0.0589885 13.8827 0 13.7237 0H10.1165C9.81487 0 9.67629 0.38764 9.90454 0.589888L24.1785 13.3989H0.326075C0.146734 13.3989 0 13.5506 0 13.736V16.264C0 16.4494 0.146734 16.6011 0.326075 16.6011H24.1744L9.90046 29.4101C9.67221 29.6166 9.81079 30 10.1124 30H13.8419C13.9193 30 13.9968 29.9705 14.0538 29.9157L29.5506 16.0197C29.6917 15.8928 29.8048 15.7362 29.8824 15.5603C29.9599 15.3844 30 15.1933 30 15C30 14.8067 29.9599 14.6156 29.8824 14.4397C29.8048 14.2638 29.6917 14.1072 29.5506 13.9803V13.9803Z" fill="#00ADB5"/>
</svg>
