<svg width="60" height="60" viewBox="0 0 60 60" fill="none" xmlns="http://www.w3.org/2000/svg">
<path d="M29.9998 0C29.3398 0 28.6873 0.0225001 28.0385 0.0637504L28.2785 3.80627C29.4248 3.73219 30.5747 3.73219 31.721 3.80627L31.961 0.0637504C31.3081 0.0214172 30.654 0.000156046 29.9998 0V0ZM24.1497 0.570003C22.8522 0.828755 21.5847 1.17001 20.3547 1.58251L21.5585 5.13753C22.6347 4.77003 23.741 4.47378 24.8735 4.24878L24.1497 0.573754V0.570003ZM39.6448 1.58626C38.4047 1.16582 37.1382 0.827585 35.8536 0.573754L35.1261 4.24878C36.2586 4.47378 37.3648 4.77378 38.4411 5.13753L39.6448 1.58626V1.58626ZM46.6686 5.05503C45.5802 4.32657 44.4453 3.67016 43.2711 3.09002L41.6099 6.45004C42.6411 6.96004 43.6349 7.53755 44.5836 8.1713L46.6686 5.05503V5.05503ZM16.7247 3.09002C15.5472 3.67127 14.4146 4.32753 13.3309 5.05503L15.4159 8.16755C16.369 7.53138 17.3623 6.95768 18.3897 6.45004L16.7247 3.09002ZM10.2184 7.4438C9.23585 8.3063 8.30585 9.23631 7.44334 10.2188L10.2634 12.6938C11.0209 11.8313 11.8309 11.0213 12.6934 10.2638L10.2184 7.4438ZM52.5562 10.2188C51.6923 9.23465 50.7653 8.30769 49.7812 7.4438L47.3062 10.2638C48.1687 11.0213 48.9824 11.8313 49.7362 12.6938L52.5562 10.2188ZM56.91 16.7251C56.3299 15.5521 55.6735 14.4184 54.945 13.3313L51.8324 15.4163C52.4662 16.3651 53.0399 17.3589 53.5499 18.3901L56.91 16.7289V16.7251ZM5.05457 13.3313C4.32707 14.4151 3.66706 15.5476 3.08956 16.7289L6.44958 18.3901C6.95959 17.3589 7.53709 16.3651 8.17085 15.4163L5.05457 13.3313V13.3313ZM1.58579 20.3551C1.16534 21.5953 0.827107 22.8618 0.573286 24.1464L4.24831 24.8739C4.47332 23.7414 4.77332 22.6351 5.13707 21.5589L1.58579 20.3551V20.3551ZM59.43 24.1501C59.1764 22.8642 58.8381 21.5965 58.4175 20.3551L54.8625 21.5589C55.23 22.6351 55.5262 23.7414 55.7512 24.8739L59.4262 24.1464L59.43 24.1501ZM0.0632817 28.0389C-0.0210939 29.3451 -0.0210939 30.6553 0.0632817 31.9614L3.80581 31.7214C3.73173 30.5751 3.73173 29.4252 3.80581 28.2789L0.0632817 28.0389V28.0389ZM60 30.0002C59.9999 29.3459 59.9786 28.6918 59.9362 28.0389L56.1937 28.2789C56.2679 29.4252 56.2679 30.5751 56.1937 31.7214L59.9362 31.9614C59.9786 31.3085 59.9999 30.6545 60 30.0002V30.0002ZM0.569536 35.8502C0.828288 37.1477 1.16954 38.4152 1.58204 39.6452L5.13707 38.4415C4.76824 37.3572 4.47135 36.2498 4.24831 35.1265L0.573286 35.854L0.569536 35.8502ZM58.4137 39.6452C58.8337 38.4152 59.1712 37.1477 59.4262 35.854L55.7512 35.1265C55.5262 36.259 55.2262 37.3652 54.8625 38.4415L58.4137 39.6452V39.6452ZM3.08956 43.2753C3.66984 44.4482 4.32625 45.5818 5.05457 46.669L8.1671 44.584C7.53029 43.6313 6.95655 42.6379 6.44958 41.6103L3.08956 43.2715V43.2753ZM54.945 46.669C55.6725 45.5853 56.3325 44.4528 56.91 43.2715L53.5499 41.6103C53.0399 42.6415 52.4624 43.6353 51.8287 44.584L54.945 46.669V46.669ZM7.44334 49.7816C8.30585 50.7641 9.23585 51.6941 10.2184 52.5566L12.6934 49.7366C11.8315 48.9801 11.0198 48.1684 10.2634 47.3065L7.44334 49.7816V49.7816ZM49.7812 52.5566C50.7637 51.6941 51.6937 50.7641 52.5562 49.7816L49.7362 47.3065C48.9824 48.169 48.1687 48.9828 47.3062 49.7366L49.7812 52.5566ZM43.2749 56.9103C44.4524 56.3291 45.5849 55.6728 46.6686 54.9453L44.5836 51.8328C43.6305 52.469 42.6372 53.0427 41.6099 53.5503L43.2711 56.9103H43.2749ZM13.3309 54.9453C14.4146 55.6728 15.5472 56.3328 16.7284 56.9103L18.3897 53.5503C17.3619 53.0422 16.3685 52.4672 15.4159 51.8291L13.3309 54.9453V54.9453ZM20.3547 58.4141C21.5847 58.8341 22.8522 59.1716 24.146 59.4266L24.8735 55.7516C23.7501 55.5285 22.6427 55.2316 21.5585 54.8628L20.3547 58.4141V58.4141ZM35.8498 59.4304C37.1357 59.1767 38.4035 58.8385 39.6448 58.4179L38.4411 54.8628C37.3568 55.2316 36.2494 55.5285 35.1261 55.7516L35.8536 59.4266L35.8498 59.4304ZM28.0385 59.9366C29.3446 60.0211 30.6549 60.0211 31.961 59.9366L31.721 56.1941C30.5747 56.2683 29.4248 56.2683 28.2785 56.1941L28.0385 59.9366V59.9366ZM31.8748 16.8751C31.8748 16.3778 31.6772 15.9009 31.3256 15.5493C30.974 15.1976 30.4971 15.0001 29.9998 15.0001C29.5025 15.0001 29.0256 15.1976 28.6739 15.5493C28.3223 15.9009 28.1248 16.3778 28.1248 16.8751V28.1252H16.8747C16.3774 28.1252 15.9005 28.3227 15.5488 28.6744C15.1972 29.026 14.9996 29.5029 14.9996 30.0002C14.9996 30.4975 15.1972 30.9744 15.5488 31.326C15.9005 31.6777 16.3774 31.8752 16.8747 31.8752H28.1248V43.1253C28.1248 43.6225 28.3223 44.0995 28.6739 44.4511C29.0256 44.8027 29.5025 45.0003 29.9998 45.0003C30.4971 45.0003 30.974 44.8027 31.3256 44.4511C31.6772 44.0995 31.8748 43.6225 31.8748 43.1253V31.8752H43.1249C43.6222 31.8752 44.0991 31.6777 44.4507 31.326C44.8023 30.9744 44.9999 30.4975 44.9999 30.0002C44.9999 29.5029 44.8023 29.026 44.4507 28.6744C44.0991 28.3227 43.6222 28.1252 43.1249 28.1252H31.8748V16.8751Z" fill="#EEEEEE"/>
</svg>
