<svg width="21" height="25" viewBox="0 0 21 25" fill="none" xmlns="http://www.w3.org/2000/svg">
<path d="M4.3335 24.75H7.16683V20.5H15.6668V17.6666H7.16683V14.8333H13.5418C17.4476 14.8333 20.6252 11.6557 20.6252 7.74996C20.6252 3.84421 17.4476 0.666626 13.5418 0.666626H5.75016C5.37444 0.666626 5.01411 0.815882 4.74843 1.08156C4.48275 1.34723 4.3335 1.70757 4.3335 2.08329V12H0.0834961V14.8333H4.3335V17.6666H0.0834961V20.5H4.3335V24.75ZM7.16683 3.49996H13.5418C15.885 3.49996 17.7918 5.40679 17.7918 7.74996C17.7918 10.0931 15.885 12 13.5418 12H7.16683V3.49996Z" fill="black"/>
</svg>
