<svg width="30" height="30" viewBox="0 0 30 30" fill="none" xmlns="http://www.w3.org/2000/svg">
<mask id="path-1-inside-1" fill="white">
<path fill-rule="evenodd" clip-rule="evenodd" d="M10.1165 0H0V13.736C0 13.5506 0.146734 13.3989 0.326075 13.3989H24.1785L9.90454 0.589888C9.67629 0.38764 9.81487 0 10.1165 0ZM13.7237 0C13.8827 0 14.0335 0.0589885 14.1517 0.164326L29.5506 13.9803C29.6917 14.1072 29.8048 14.2638 29.8824 14.4397C29.9599 14.6156 30 14.8067 30 15C30 15.1933 29.9599 15.3844 29.8824 15.5603C29.8048 15.7362 29.6917 15.8928 29.5506 16.0197L14.0538 29.9157C13.9968 29.9705 13.9193 30 13.8419 30H30V15V0H13.7237ZM10.1124 30C9.81079 30 9.67221 29.6166 9.90046 29.4101L24.1744 16.6011H0.326075C0.146734 16.6011 0 16.4494 0 16.264V30H10.1124Z"/>
</mask>
<path fill-rule="evenodd" clip-rule="evenodd" d="M10.1165 0H0V13.736C0 13.5506 0.146734 13.3989 0.326075 13.3989H24.1785L9.90454 0.589888C9.67629 0.38764 9.81487 0 10.1165 0ZM13.7237 0C13.8827 0 14.0335 0.0589885 14.1517 0.164326L29.5506 13.9803C29.6917 14.1072 29.8048 14.2638 29.8824 14.4397C29.9599 14.6156 30 14.8067 30 15C30 15.1933 29.9599 15.3844 29.8824 15.5603C29.8048 15.7362 29.6917 15.8928 29.5506 16.0197L14.0538 29.9157C13.9968 29.9705 13.9193 30 13.8419 30H30V15V0H13.7237ZM10.1124 30C9.81079 30 9.67221 29.6166 9.90046 29.4101L24.1744 16.6011H0.326075C0.146734 16.6011 0 16.4494 0 16.264V30H10.1124Z" fill="#222831"/>
<path d="M0 0V-1H-1V0H0ZM24.1785 13.3989V14.3989H26.7901L24.8464 12.6546L24.1785 13.3989ZM9.90454 0.589888L10.5724 -0.154394L10.5677 -0.158569L9.90454 0.589888ZM14.1517 0.164326L14.8195 -0.580006L14.817 -0.582241L14.1517 0.164326ZM29.5506 13.9803L30.2191 13.2366L30.2184 13.236L29.5506 13.9803ZM29.5506 16.0197L30.2182 16.7642L30.2191 16.7634L29.5506 16.0197ZM14.0538 29.9157L13.3862 29.1712L13.3736 29.1826L13.3614 29.1943L14.0538 29.9157ZM30 30V31H31V30H30ZM30 0H31V-1H30V0ZM9.90046 29.4101L9.23258 28.6658L9.22964 28.6685L9.90046 29.4101ZM24.1744 16.6011L24.8423 17.3454L26.7861 15.6011H24.1744V16.6011ZM0 30H-1V31H0V30ZM0 1H10.1165V-1H0V1ZM1 13.736V0H-1V13.736H1ZM0.326075 12.3989C-0.436572 12.3989 -1 13.0298 -1 13.736H1C1 14.0713 0.730039 14.3989 0.326075 14.3989V12.3989ZM24.1785 12.3989H0.326075V14.3989H24.1785V12.3989ZM9.23666 1.33416L23.5106 14.1431L24.8464 12.6546L10.5724 -0.15438L9.23666 1.33416ZM10.1165 -1C8.8263 -1 8.37576 0.571369 9.24136 1.33834L10.5677 -0.158569C10.7973 0.0448687 10.8294 0.343791 10.7531 0.556646C10.6758 0.772144 10.4479 1 10.1165 1V-1ZM14.817 -0.582241C14.5202 -0.846727 14.1341 -1 13.7237 -1V1C13.6312 1 13.5467 0.964704 13.4864 0.910892L14.817 -0.582241ZM30.2184 13.236L14.8195 -0.580001L13.4839 0.908653L28.8828 14.7247L30.2184 13.236ZM30.7974 14.0364C30.6635 13.7326 30.467 13.4595 30.2191 13.2366L28.8821 14.724C28.9164 14.7549 28.9461 14.795 28.9673 14.8431L30.7974 14.0364ZM31 15C31 14.6686 30.9313 14.3401 30.7974 14.0364L28.9673 14.8431C28.9885 14.8912 29 14.9448 29 15H31ZM30.7974 15.9636C30.9313 15.6599 31 15.3314 31 15H29C29 15.0552 28.9885 15.1088 28.9673 15.1569L30.7974 15.9636ZM30.2191 16.7634C30.467 16.5405 30.6635 16.2674 30.7974 15.9636L28.9673 15.1569C28.9461 15.205 28.9164 15.2451 28.8821 15.276L30.2191 16.7634ZM14.7215 30.6602L30.2182 16.7642L28.883 15.2752L13.3862 29.1712L14.7215 30.6602ZM13.8419 31C14.166 31 14.4949 30.8785 14.7463 30.6372L13.3614 29.1943C13.4986 29.0625 13.6727 29 13.8419 29V31ZM30 29H13.8419V31H30V29ZM29 15V30H31V15H29ZM29 0V15H31V0H29ZM13.7237 1H30V-1H13.7237V1ZM9.22964 28.6685C8.38332 29.434 8.81437 31 10.1124 31V29C10.4381 29 10.6691 29.2228 10.7486 29.4436C10.8273 29.6621 10.7893 29.9545 10.5713 30.1517L9.22964 28.6685ZM23.5065 15.8569L9.23258 28.6658L10.5683 30.1544L24.8423 17.3454L23.5065 15.8569ZM0.326075 17.6011H24.1744V15.6011H0.326075V17.6011ZM-1 16.264C-1 16.9702 -0.436573 17.6011 0.326075 17.6011V15.6011C0.730041 15.6011 1 15.9287 1 16.264H-1ZM1 30V16.264H-1V30H1ZM10.1124 29H0V31H10.1124V29Z" fill="#222831" mask="url(#path-1-inside-1)"/>
</svg>
