<svg width="36" height="32" viewBox="0 0 36 32" fill="none" xmlns="http://www.w3.org/2000/svg">
<path fill-rule="evenodd" clip-rule="evenodd" d="M17.2831 1.38059C17.4099 1.25345 17.5606 1.15258 17.7264 1.08375C17.8923 1.01492 18.0701 0.979492 18.2497 0.979492C18.4293 0.979492 18.6071 1.01492 18.773 1.08375C18.9388 1.15258 19.0895 1.25345 19.2163 1.38059L35.5996 17.7639C35.856 18.0203 36 18.368 36 18.7305C36 19.0931 35.856 19.4408 35.5996 19.6971C35.3433 19.9535 34.9956 20.0975 34.633 20.0975C34.2705 20.0975 33.9227 19.9535 33.6664 19.6971L18.2497 4.27771L2.833 19.6971C2.57664 19.9535 2.22894 20.0975 1.86639 20.0975C1.50384 20.0975 1.15614 19.9535 0.899775 19.6971C0.643412 19.4408 0.49939 19.0931 0.49939 18.7305C0.49939 18.368 0.643412 18.0203 0.899775 17.7639L17.2831 1.38059V1.38059Z" fill="#222831"/>
<path fill-rule="evenodd" clip-rule="evenodd" d="M17.2831 12.303C17.4099 12.1758 17.5606 12.0749 17.7264 12.0061C17.8923 11.9373 18.0701 11.9019 18.2497 11.9019C18.4293 11.9019 18.6071 11.9373 18.773 12.0061C18.9388 12.0749 19.0895 12.1758 19.2163 12.303L35.5996 28.6863C35.856 28.9426 36 29.2903 36 29.6529C36 30.0154 35.856 30.3631 35.5996 30.6195C35.3433 30.8759 34.9956 31.0199 34.633 31.0199C34.2705 31.0199 33.9227 30.8759 33.6664 30.6195L18.2497 15.2001L2.833 30.6195C2.57664 30.8759 2.22894 31.0199 1.86639 31.0199C1.50384 31.0199 1.15614 30.8759 0.899775 30.6195C0.643412 30.3631 0.49939 30.0154 0.49939 29.6529C0.49939 29.2903 0.643412 28.9426 0.899775 28.6863L17.2831 12.303V12.303Z" fill="#222831"/>
</svg>
