<svg width="30" height="30" viewBox="0 0 30 30" fill="none" xmlns="http://www.w3.org/2000/svg">
<path d="M14.2104 0.00448045C11.6738 0.0335465 6.22031 0.42922 3.17006 3.08549C0.901138 5.2195 0.108942 8.37458 0.0160912 12.276C-0.0609553 16.1633 -0.153806 23.4636 7.25945 25.4514V28.4789C7.25945 28.4789 7.21302 29.6903 8.05658 29.9388C9.09572 30.251 9.6874 29.319 10.6752 28.3177L12.5174 26.3402C17.5896 26.7406 21.4745 25.818 21.922 25.6811C22.9512 25.3689 28.7485 24.6656 29.6958 17.3644C30.6678 9.82413 29.2226 5.07323 26.6139 2.92422H26.5981C25.8109 2.23601 22.647 0.0476108 15.5785 0.0232328C15.5785 0.0232328 15.054 -0.00958378 14.2104 0.00448045ZM14.2973 2.12443C15.0174 2.11974 15.455 2.14881 15.455 2.14881C21.438 2.16381 24.2936 3.87308 24.9673 4.44878C27.1641 6.23587 28.2961 10.5189 27.4674 16.8141C26.6801 22.9179 21.9783 23.3042 21.1081 23.5677C20.7376 23.6802 17.316 24.4809 13.0053 24.2175C13.0053 24.2175 9.79507 27.8948 8.79149 28.8418C8.63246 29.0077 8.44676 29.0565 8.32822 29.0321C8.15832 28.9927 8.10696 28.793 8.11684 28.5192L8.14746 23.4946C1.86027 21.8444 2.23068 15.6177 2.29785 12.3651C2.3749 9.11248 3.01794 6.45153 4.93225 4.64943C7.50936 2.43759 12.14 2.13943 14.2954 2.12443H14.2973ZM14.7715 5.37608C14.7197 5.37559 14.6684 5.38482 14.6204 5.40324C14.5725 5.42167 14.5288 5.44892 14.492 5.48344C14.4552 5.51795 14.4259 5.55905 14.4059 5.60435C14.3859 5.64964 14.3755 5.69826 14.3754 5.74738C14.3754 5.9574 14.5552 6.12336 14.7715 6.12336C15.7509 6.10568 16.7242 6.27222 17.6355 6.61338C18.5467 6.95454 19.3778 7.46357 20.0808 8.1111C21.516 9.43408 22.2154 11.2118 22.242 13.5361C22.242 13.7415 22.4169 13.9121 22.6381 13.9121V13.8971C22.7424 13.8974 22.8426 13.8585 22.9168 13.7889C22.991 13.7194 23.0332 13.6248 23.0342 13.5258C23.0822 12.4318 22.8953 11.3399 22.4848 10.3165C22.0744 9.29317 21.4491 8.35972 20.6468 7.57291C19.0831 6.12242 17.1016 5.37608 14.7715 5.37608ZM9.56492 6.23587C9.28532 6.1971 9.00017 6.25037 8.75692 6.38683H8.73617C8.17142 6.70106 7.66267 7.09822 7.22883 7.56354C6.86829 7.95921 6.67271 8.35957 6.62135 8.74493C6.59072 8.97465 6.61147 9.20437 6.68358 9.42377L6.70926 9.43877C7.11523 10.5714 7.64567 11.6609 8.29365 12.6867C9.12834 14.1277 10.1556 15.4605 11.3498 16.6518L11.3854 16.7006L11.4417 16.74L11.4773 16.7794L11.5187 16.8131C12.7784 17.9501 14.1858 18.9297 15.7069 19.7282C17.4454 20.6264 18.5003 21.0511 19.1335 21.2274V21.2368C19.3192 21.2902 19.4881 21.3146 19.658 21.3146C20.1976 21.2771 20.7085 21.0691 21.109 20.7239C21.597 20.312 22.0108 19.8271 22.3339 19.2884V19.279C22.6371 18.7371 22.5344 18.2242 22.0968 17.8773C21.2205 17.1502 20.2728 16.5044 19.2668 15.9486C18.5932 15.6017 17.9087 15.8117 17.6311 16.1633L17.0394 16.8712C16.7362 17.2229 16.185 17.1741 16.185 17.1741L16.1692 17.1835C12.059 16.1868 10.9626 12.2366 10.9626 12.2366C10.9626 12.2366 10.9113 11.6994 11.2915 11.4256L12.0324 10.8593C12.387 10.5855 12.6339 9.93664 12.2536 9.29625C11.6722 8.34003 10.9933 7.44029 10.2267 6.60998C10.0591 6.41424 9.82401 6.28106 9.56294 6.234L9.56492 6.23587ZM15.455 7.34976C14.9305 7.34976 14.9305 8.10173 15.46 8.10173C16.1122 8.11177 16.7559 8.24372 17.3544 8.49003C17.9528 8.73634 18.4943 9.09218 18.9478 9.53722C19.3615 9.97041 19.6794 10.478 19.8827 11.0299C20.0859 11.5819 20.1704 12.1669 20.1311 12.7504C20.133 12.8492 20.1754 12.9433 20.2495 13.0127C20.3235 13.0821 20.4232 13.1212 20.5272 13.1217L20.5431 13.1414C20.6479 13.1407 20.7482 13.1008 20.8223 13.0305C20.8964 12.9601 20.9384 12.8649 20.9391 12.7654C20.9747 11.2756 20.4867 10.0257 19.5296 9.02434C18.5675 8.02297 17.2251 7.46134 15.5113 7.34976H15.455ZM16.104 9.37126C15.5637 9.35626 15.5429 10.1232 16.0783 10.1382C17.3802 10.202 18.0124 10.8264 18.0953 12.111C18.0972 12.2085 18.1391 12.3014 18.2122 12.37C18.2853 12.4385 18.3838 12.4771 18.4865 12.4776H18.5023C18.5551 12.4754 18.607 12.4633 18.6548 12.4419C18.7026 12.4206 18.7455 12.3904 18.7809 12.3531C18.8163 12.3158 18.8435 12.2722 18.861 12.2249C18.8785 12.1775 18.8858 12.1273 18.8826 12.0772C18.7897 10.4026 17.8277 9.4594 16.1198 9.3722L16.104 9.37126Z" fill="#222831"/>
</svg>
